<?xml version="1.0" encoding="iso-8859-1"?>
<!-- Uploaded to: SVG Repo, www.svgrepo.com, Generator: SVG Repo Mixer Tools -->
<svg fill="#000000" height="800px" width="800px" version="1.1" id="Layer_1" xmlns="http://www.w3.org/2000/svg" xmlns:xlink="http://www.w3.org/1999/xlink" 
	 viewBox="0 0 512.001 512.001" xml:space="preserve">
<g>
	<g>
		<g>
			<path d="M471.767,61.324H139.615c-4.598,0-8.326,3.728-8.326,8.326s3.728,8.326,8.326,8.326h332.15
				c13.004,0,23.582,10.58,23.582,23.582v308.885c0,13.004-10.58,23.582-23.582,23.582H208.264c-4.598,0-8.326,3.728-8.326,8.326
				s3.728,8.326,8.326,8.326h263.501c22.186,0,40.234-18.048,40.235-40.234V101.558C512.001,79.372,493.952,61.324,471.767,61.324z"
				/>
			<path d="M174.961,434.026H40.234c-13.004,0-23.582-10.58-23.582-23.582V101.558c0-13.003,10.578-23.581,23.582-23.581h66.077
				c4.598,0,8.326-3.728,8.326-8.326c0-4.598-3.728-8.326-8.326-8.326H40.234C18.048,61.325,0,79.373,0,101.558v308.886
				c0,22.185,18.048,40.233,40.234,40.233h134.726c4.598,0,8.326-3.728,8.326-8.326S179.559,434.026,174.961,434.026z"/>
		</g>
	</g>
</g>
<g>
	<g>
		<path d="M456.134,168.677H55.866c-4.598,0-8.326,3.728-8.326,8.326v216.528c0,4.598,3.728,8.326,8.326,8.326h296.258
			c4.598,0,8.326-3.728,8.326-8.326s-3.728-8.326-8.326-8.326H64.192V185.329h383.616v199.876h-62.38
			c-4.598,0-8.326,3.728-8.326,8.326s3.728,8.326,8.326,8.326h70.706c4.598,0,8.326-3.728,8.326-8.326V177.003
			C464.46,172.405,460.732,168.677,456.134,168.677z"/>
	</g>
</g>
<g>
	<g>
		<circle cx="437.701" cy="123.325" r="18.437"/>
	</g>
</g>
<g>
	<g>
		<circle cx="382.173" cy="123.325" r="18.437"/>
	</g>
</g>
<g>
	<g>
		<circle cx="326.655" cy="123.325" r="18.437"/>
	</g>
</g>
</svg>